<svg width="20" height="21" viewBox="0 0 20 21" fill="none" xmlns="http://www.w3.org/2000/svg">
<path d="M7.79296 9.09756C7.77597 9.09756 7.75048 9.0919 7.72783 9.06641C7.38799 8.68693 7.14445 8.29895 7.01417 7.91947L7.79296 9.09756ZM7.79296 9.09756C7.80996 9.10039 7.83828 9.09473 7.86376 9.07207L7.79296 9.09756ZM6.05439 7.62216L6.05455 7.62201L6.52749 7.18871L6.52836 7.18793C6.62385 7.1025 6.76779 7.11315 6.85196 7.20524C6.87671 7.23093 6.89068 7.26217 6.89746 7.27912L6.89756 7.27908L6.89907 7.28344L7.10864 7.88665L7.10876 7.887C7.23259 8.24772 7.46508 8.62131 7.79446 8.99089C7.73632 7.99524 8.0357 6.87874 8.67604 5.6749L8.67607 5.67484C9.21384 4.66545 9.95987 3.87565 10.894 3.32212L10.894 3.32211L10.8948 3.32164L11.5687 2.93086C11.5687 2.93085 11.5688 2.93084 11.5688 2.93083C11.7272 2.83889 11.9192 2.9622 11.9143 3.13905L11.9143 3.13905L11.9142 3.141L11.8774 3.91979L11.8774 3.91985C11.8524 4.4422 11.9139 4.89807 12.0552 5.27313L12.0553 5.27346C12.2299 5.74178 12.4792 6.1766 12.8004 6.56429L12.8009 6.56485C13.0222 6.83593 13.2771 7.07992 13.5549 7.29664C14.2493 7.82978 14.814 8.51556 15.2059 9.29922L15.206 9.29948C15.598 10.0893 15.8026 10.9626 15.8026 11.8446C15.8026 12.6225 15.6499 13.3779 15.3442 14.0874C15.0504 14.7701 14.6297 15.3926 14.0993 15.9172C13.5663 16.4445 12.9438 16.8595 12.2551 17.1476C11.5405 17.4473 10.7797 17.6 9.99906 17.6C9.21841 17.6 8.45774 17.4473 7.74328 17.1506L7.74304 17.1505C7.05455 16.8624 6.42637 16.4446 5.89886 15.9201C5.36589 15.3929 4.945 14.776 4.6538 14.0899C4.35113 13.3808 4.19549 12.617 4.19549 11.8474C4.19549 11.0406 4.35979 10.2593 4.68836 9.52142C5.00836 8.8007 5.47528 8.15517 6.05439 7.62216ZM7.79494 8.99906C7.79491 8.99859 7.79488 8.99812 7.79486 8.99764C7.79423 8.99759 7.7936 8.99756 7.79296 8.99756L7.79494 8.99906ZM13.1853 14.9907L13.2402 15.0459L13.1853 14.9907C14.0333 14.1484 14.501 13.0325 14.501 11.8474C14.501 11.1576 14.346 10.4961 14.0386 9.88143L14.0385 9.88126C13.7395 9.28045 13.2962 8.7429 12.7588 8.33011C12.4017 8.05653 12.076 7.74245 11.7934 7.3935C11.3817 6.88966 11.059 6.33079 10.8343 5.72851L10.8342 5.72841C10.7632 5.5375 10.7074 5.34157 10.6669 5.14192C10.343 5.46679 10.065 5.84857 9.82959 6.29L9.82958 6.29001C9.29341 7.29499 9.05264 8.17938 9.09918 8.92138L9.09919 8.92145C9.12369 9.31659 8.96765 9.70624 8.6696 9.97069C8.41472 10.2008 8.07727 10.3203 7.73102 10.3019C7.38404 10.2835 7.06779 10.1297 6.83524 9.87265L6.83484 9.87221C6.6509 9.66648 6.48683 9.45613 6.34457 9.24111C6.16064 9.49241 6.00403 9.76412 5.87658 10.0527L5.8765 10.0529C5.62449 10.6206 5.49712 11.2241 5.49712 11.8446C5.49712 13.0326 5.9649 14.1484 6.81279 14.9907C7.66341 15.833 8.7935 16.2984 9.99906 16.2984C11.2048 16.2984 12.3349 15.8357 13.1853 14.9907Z" fill="#484848" stroke="#484848" stroke-width="0.2"/>
</svg>
