<svg width="21" height="20" viewBox="0 0 21 20" fill="none" xmlns="http://www.w3.org/2000/svg">
<path fill-rule="evenodd" clip-rule="evenodd" d="M10.415 18.2741C8.94049 17.2876 7.96962 15.607 7.96962 13.6997C7.96962 10.6621 10.4321 8.19969 13.4696 8.19969C13.8205 8.19969 14.1637 8.23254 14.4963 8.29534C14.1412 7.77317 13.7857 7.32492 13.4999 6.96462L13.4965 6.9604L13.3895 6.83202C12.0413 5.16281 11.6775 3.53645 12.2553 1.88861C12.2767 1.82442 12.2553 1.73873 12.2125 1.67454C12.1483 1.61036 12.0839 1.58901 11.9984 1.61036C10.3078 1.99556 7.95373 4.52076 7.8682 7.13157C7.1714 6.17606 7.5302 4.85008 7.58365 4.65253C7.58766 4.63772 7.58995 4.62925 7.58995 4.62776C7.63279 4.52088 7.58995 4.41385 7.50441 4.37101C7.41888 4.30682 7.31185 4.32817 7.24766 4.39235C5.42858 6.16856 3.52399 10.1704 3.69521 13.0808C3.90921 16.676 6.90526 18.3024 9.77283 18.3024L9.7729 18.3024C9.98617 18.3024 10.2006 18.293 10.415 18.2741Z" fill="#9F54BC"/>
<path fill-rule="evenodd" clip-rule="evenodd" d="M13.7548 18.3967C14.3457 18.3967 14.9309 18.2803 15.4769 18.0541C16.0228 17.828 16.5189 17.4965 16.9368 17.0786C17.3546 16.6608 17.6861 16.1647 17.9122 15.6187C18.1384 15.0728 18.2548 14.4876 18.2548 13.8967C18.2548 13.3057 18.1384 12.7206 17.9122 12.1746C17.6861 11.6286 17.3546 11.1326 16.9368 10.7147C16.5189 10.2968 16.0228 9.96536 15.4769 9.73921C14.9309 9.51306 14.3457 9.39667 13.7548 9.39667C12.5613 9.39667 11.4167 9.87077 10.5728 10.7147C9.72888 11.5586 9.25478 12.7032 9.25478 13.8967C9.25478 15.0901 9.72888 16.2347 10.5728 17.0786C11.4167 17.9226 12.5613 18.3967 13.7548 18.3967ZM14.3122 11.9995C14.3122 11.6957 14.0659 11.4495 13.7622 11.4495C13.4584 11.4495 13.2122 11.6957 13.2122 11.9995V14.8269L12.1827 13.7975C11.968 13.5827 11.6197 13.5827 11.4049 13.7975C11.1901 14.0123 11.1901 14.3605 11.4049 14.5753L13.3733 16.5436C13.588 16.7584 13.9363 16.7584 14.1511 16.5436L16.1194 14.5753C16.3342 14.3605 16.3342 14.0123 16.1194 13.7975C15.9046 13.5827 15.5564 13.5827 15.3416 13.7975L14.3122 14.8269V11.9995Z" fill="#9F54BC"/>
</svg>
