<svg width="20" height="21" viewBox="0 0 20 21" fill="none" xmlns="http://www.w3.org/2000/svg">
<path d="M7.94055 7.74454L8.01892 7.69437C7.70087 7.03081 7.71631 6.41902 7.93407 5.91541C8.15232 5.41068 8.57538 5.01113 9.07791 4.77733C9.58044 4.54354 10.1595 4.47688 10.6878 4.63407C11.2149 4.7909 11.6951 5.17156 12.0006 5.83966L12.0006 5.83967C12.271 6.43028 12.2776 7.0779 11.9823 7.69438L12.0606 7.74452C12.4666 7.25402 13.1468 6.96081 13.8168 6.92471C14.487 6.88859 15.1351 7.10986 15.486 7.63277L15.5249 7.60666L15.486 7.63278C16.0797 8.51745 16.0612 9.40944 15.6891 10.0794C15.3162 10.7509 14.5864 11.2032 13.7489 11.2032V11.2016L13.7425 11.2033H13.7313C12.8958 11.2033 12.2031 11.9655 12.2031 12.7959V13.4533H7.79686V12.8176C7.79686 12.0158 7.15442 11.3055 6.34544 11.3421C5.33349 11.3869 4.43367 10.7474 4.1528 9.83243C3.43198 7.48151 6.4135 5.90116 7.94055 7.74454ZM17.5468 9.14022C17.5468 7.05215 15.826 5.22847 13.5263 5.36748C12.9722 3.95635 11.6078 2.95313 10 2.95313C8.39294 2.95313 7.02856 3.95636 6.47451 5.36749C4.17798 5.2292 2.45313 7.04831 2.45313 9.14022C2.45313 11.0175 3.81469 12.5756 5.60458 12.8823C5.94807 12.9417 6.20315 13.228 6.20315 13.5742V16.5C6.20315 17.3547 6.89621 18.0469 7.75003 18.0469H12.25C13.1047 18.0469 13.7969 17.3547 13.7969 16.5V13.5742C13.7969 13.228 14.052 12.9417 14.3962 12.8823C16.1854 12.5755 17.5468 11.0174 17.5468 9.14022ZM12.2031 15.7501C12.2031 16.1383 11.8888 16.4533 11.5 16.4533H8.5C8.11186 16.4533 7.79687 16.1383 7.79687 15.7501V15.047H12.2031V15.7501Z" fill="#D81B60" stroke="#D81B60" stroke-width="0.09375"/>
</svg>
