<svg viewBox="0 0 32 32" fill="none" xmlns="http://www.w3.org/2000/svg" class="nopurge_vector_hQJ2uy7e nopurge_icon_Fufw4GZQ">
    <path d="M14.4 9.60005C14.4 10.8731 13.8943 12.094 12.9941 12.9942C12.0939 13.8943 10.873 14.4 9.59998 14.4C8.32694 14.4 7.10604 13.8943 6.20586 12.9942C5.30569 12.094 4.79998 10.8731 4.79998 9.60005C4.79998 8.32701 5.30569 7.10611 6.20586 6.20594C7.10604 5.30576 8.32694 4.80005 9.59998 4.80005C10.873 4.80005 12.0939 5.30576 12.9941 6.20594C13.8943 7.10611 14.4 8.32701 14.4 9.60005ZM27.2 9.60005C27.2 10.2304 27.0758 10.8546 26.8346 11.4369C26.5934 12.0193 26.2398 12.5484 25.7941 12.9942C25.3484 13.4399 24.8192 13.7934 24.2369 14.0347C23.6545 14.2759 23.0303 14.4 22.4 14.4C21.7696 14.4 21.1455 14.2759 20.5631 14.0347C19.9807 13.7934 19.4516 13.4399 19.0059 12.9942C18.5601 12.5484 18.2066 12.0193 17.9654 11.4369C17.7241 10.8546 17.6 10.2304 17.6 9.60005C17.6 8.32701 18.1057 7.10611 19.0059 6.20594C19.906 5.30576 21.1269 4.80005 22.4 4.80005C23.673 4.80005 24.8939 5.30576 25.7941 6.20594C26.6943 7.10611 27.2 8.32701 27.2 9.60005ZM20.688 27.2C20.7616 26.6768 20.8 26.144 20.8 25.6C20.8037 23.0862 19.9579 20.6449 18.4 18.672C19.6161 17.9699 20.9956 17.6003 22.3999 17.6003C23.8042 17.6002 25.1837 17.9699 26.3999 18.672C27.616 19.3741 28.6259 20.384 29.3281 21.6001C30.0303 22.8162 30.3999 24.1958 30.4 25.6V27.2H20.688ZM9.59998 17.6C11.7217 17.6 13.7565 18.4429 15.2568 19.9432C16.7571 21.4435 17.6 23.4783 17.6 25.6V27.2H1.59998V25.6C1.59998 23.4783 2.44283 21.4435 3.94312 19.9432C5.44341 18.4429 7.47824 17.6 9.59998 17.6Z" fill="#575656"></path>
</svg>