<svg viewBox="0 0 32 32" fill="none" xmlns="http://www.w3.org/2000/svg" class="nopurge_vector_hQJ2uy7e nopurge_icon_Fufw4GZQ">
    <path d="M9.06956 5.12847C7.86278 5.4158 6.72496 6.34675 6.1503 7.50756C5.86297 8.09371 5.82849 8.28909 5.82849 9.31198C5.82849 10.3808 5.85148 10.5188 6.19627 11.2198C6.64451 12.1278 7.36858 12.8289 8.27654 13.2541C8.85119 13.53 9.08106 13.5645 10.081 13.5645C11.1268 13.5645 11.2877 13.53 11.8969 13.2197C12.7819 12.7829 13.7128 11.7715 14.0576 10.898C14.4599 9.86365 14.4254 8.6109 13.9657 7.63398C13.7818 7.22023 13.46 6.70303 13.2531 6.47317C12.2647 5.33535 10.5292 4.78368 9.06956 5.12847Z" fill="#575656"></path>
    <path d="M20.8269 5.17444C19.5627 5.53073 18.6317 6.34675 18.0341 7.63398C17.5744 8.6109 17.5399 9.86365 17.9422 10.898C18.287 11.7715 19.2179 12.7829 20.1029 13.2197C20.712 13.53 20.8729 13.5645 21.9188 13.5645C22.9187 13.5645 23.1486 13.53 23.7232 13.2541C24.6312 12.8289 25.3552 12.1278 25.8035 11.2198C26.1483 10.5188 26.1713 10.3808 26.1713 9.31198C26.1713 8.2776 26.1368 8.09371 25.838 7.48457C24.93 5.62268 22.7693 4.63426 20.8269 5.17444Z" fill="#575656"></path>
    <path d="M6.81688 14.1507C5.83996 14.4151 4.89752 14.9782 4.20793 15.7138C2.9092 17.1275 2.66785 18.0009 2.66785 21.4719V23.9659L2.97816 24.0923C4.11599 24.5405 7.36855 25.1727 8.98909 25.2531L9.62121 25.2876L9.67868 23.6211C9.73614 22.081 9.77062 21.8971 10.0694 21.2765C10.3913 20.6214 11.2877 19.5985 11.8394 19.2422L12.1037 19.0813L11.8394 18.5066C11.4486 17.6446 11.4601 16.2195 11.8739 15.346C12.0348 15.0012 12.3106 14.5645 12.483 14.3921C12.6439 14.2197 12.7818 14.0473 12.7818 14.0128C12.7818 13.9898 11.575 13.9668 10.1154 13.9783C8.16158 13.9783 7.26511 14.0243 6.81688 14.1507Z" fill="#575656"></path>
    <path d="M18.8502 14.1046L18.4135 14.2195L18.7008 14.5873C19.5398 15.6907 19.7237 17.4721 19.103 18.6674L18.8847 19.1041L19.241 19.311C19.7237 19.5983 20.4133 20.3224 20.7581 20.92C21.2178 21.6901 21.4017 22.598 21.4017 24.0692V25.3794L23.0452 25.3104C25.3553 25.207 27.2402 24.8392 28.6424 24.2301L29.332 23.9313V21.4487C29.332 18.0008 29.0906 17.1273 27.7919 15.7136C27.0908 14.9551 26.1598 14.4149 25.137 14.1391C24.3439 13.9437 19.5858 13.9092 18.8502 14.1046Z" fill="#575656"></path>
    <path d="M14.908 14.53C13.6667 14.8518 12.8852 15.8517 12.8852 17.1274C12.8852 18.6445 13.977 19.7479 15.4826 19.7479C16.54 19.7594 17.425 19.2307 17.9307 18.2882C18.195 17.8055 18.195 16.4493 17.9307 15.9666C17.3445 14.8748 15.9998 14.2426 14.908 14.53Z" fill="#575656"></path>
    <path d="M13.6667 20.0581C12.6093 20.3225 11.7358 21.035 11.2646 22.0005C11.0232 22.4717 11.0003 22.736 10.9658 24.3796L10.9198 26.23L11.8278 26.4713C13.4253 26.8966 14.1839 27 15.8274 27C17.1261 27 17.6318 26.9425 18.4708 26.7357C20.1718 26.2989 20.0454 26.4828 20.0339 24.4715C20.0224 23.2877 19.9649 22.5981 19.8385 22.2188C19.5971 21.4948 18.8846 20.7132 18.103 20.334C17.4939 20.0351 17.3445 20.0122 15.7814 19.9777C14.862 19.9662 13.908 20.0007 13.6667 20.0581Z" fill="#575656"></path>
</svg>