<svg width="20" height="20" viewBox="0 0 20 20" fill="none" xmlns="http://www.w3.org/2000/svg">
<path d="M5.53309 3.39005C4.791 3.56674 4.09131 4.13921 3.73793 4.85303C3.56124 5.21348 3.54004 5.33363 3.54004 5.96264C3.54004 6.61992 3.55417 6.70473 3.7662 7.13585C4.04184 7.69419 4.48709 8.12531 5.04543 8.38681C5.39881 8.55643 5.54016 8.57764 6.15504 8.57764C6.79818 8.57764 6.89713 8.55643 7.27171 8.36561C7.81591 8.09704 8.38839 7.4751 8.60041 6.93796C8.84778 6.30188 8.82657 5.53152 8.54387 4.93078C8.43079 4.67634 8.2329 4.3583 8.10568 4.21695C7.49787 3.51726 6.43067 3.17802 5.53309 3.39005Z" fill="#539FC5"/>
<path d="M13.3567 3.41832C12.5792 3.63741 12.0068 4.13921 11.6392 4.93078C11.3565 5.53152 11.3353 6.30188 11.5827 6.93796C11.7947 7.4751 12.3672 8.09704 12.9114 8.36561C13.286 8.55643 13.3849 8.57764 14.0281 8.57764C14.643 8.57764 14.7843 8.55643 15.1377 8.38681C15.696 8.12531 16.1413 7.69419 16.4169 7.13585C16.6289 6.70473 16.6431 6.61992 16.6431 5.96264C16.6431 5.32656 16.6219 5.21348 16.4381 4.8389C15.8798 3.69395 14.5511 3.08614 13.3567 3.41832Z" fill="#539FC5"/>
<path d="M3.76572 9.69644C3.129 9.86873 2.51475 10.2358 2.0653 10.7152C1.21883 11.6366 1.06152 12.2059 1.06152 14.4681V16.0936L1.26378 16.176C2.00537 16.4682 4.12529 16.8802 5.1815 16.9326L5.59349 16.9551L5.63095 15.8689C5.6684 14.8651 5.69087 14.7453 5.88564 14.3408C6.09538 13.9138 6.67967 13.2471 7.03923 13.0149L7.21152 12.91L7.03923 12.5355C6.78454 11.9737 6.79203 11.0448 7.0617 10.4755C7.16657 10.2508 7.34635 9.96611 7.45872 9.85374C7.56359 9.74138 7.65348 9.62902 7.65348 9.60655C7.65348 9.59156 6.86694 9.57658 5.9156 9.58407C4.64215 9.58407 4.05787 9.61404 3.76572 9.69644Z" fill="#539FC5"/>
<path d="M12.0725 9.66606L11.7878 9.74096L11.9751 9.98067C12.5219 10.6998 12.6418 11.8609 12.2373 12.6399L12.095 12.9246L12.3272 13.0594C12.6418 13.2467 13.0913 13.7186 13.316 14.1081C13.6156 14.61 13.7355 15.2018 13.7355 16.1606V17.0146L14.8067 16.9696C16.3123 16.9022 17.5408 16.6625 18.4547 16.2655L18.9042 16.0707V14.4527C18.9042 12.2055 18.7468 11.6362 17.9004 10.7148C17.4434 10.2204 16.8367 9.86831 16.17 9.68853C15.6531 9.56118 12.5519 9.53871 12.0725 9.66606Z" fill="#539FC5"/>
<path d="M9.28787 9.94327C8.47886 10.153 7.96948 10.8047 7.96948 11.6362C7.96948 12.625 8.68111 13.3441 9.66242 13.3441C10.3516 13.3516 10.9284 13.007 11.258 12.3928C11.4303 12.0782 11.4303 11.1942 11.258 10.8796C10.8759 10.168 9.9995 9.756 9.28787 9.94327Z" fill="#539FC5"/>
<path d="M8.47928 13.5463C7.79012 13.7186 7.22082 14.183 6.91369 14.8123C6.75638 15.1194 6.7414 15.2917 6.71893 16.3629L6.68896 17.5689L7.28074 17.7262C8.32197 18.0034 8.81637 18.0708 9.88756 18.0708C10.734 18.0708 11.0636 18.0333 11.6105 17.8985C12.7191 17.6139 12.6367 17.7337 12.6292 16.4228C12.6217 15.6513 12.5843 15.2018 12.5019 14.9546C12.3446 14.4827 11.8801 13.9733 11.3708 13.7261C10.9737 13.5313 10.8764 13.5164 9.8576 13.4939C9.25833 13.4864 8.63659 13.5089 8.47928 13.5463Z" fill="#539FC5"/>
</svg>
