<svg width="20" height="20" viewBox="0 0 20 20" fill="none" xmlns="http://www.w3.org/2000/svg">
<path d="M15.4324 13.384H15.4491L15.4238 13.2733C15.1569 12.1054 14.1146 11.229 12.8659 11.229C11.6424 11.229 10.6171 12.0704 10.3252 13.2029H5.48586C5.12459 13.2029 4.83131 13.4955 4.83131 13.8573C4.83131 14.2193 5.12459 14.5119 5.48586 14.5119H10.3252C10.6171 15.6443 11.6425 16.4857 12.8659 16.4857C14.1146 16.4857 15.1569 15.6093 15.4238 14.4415L15.4491 14.3308H15.4324C15.4394 14.3182 15.4458 14.3053 15.4514 14.292C15.5038 14.1699 15.5074 14.0095 15.5074 13.8573C15.5074 13.7052 15.5038 13.5448 15.4514 13.4228C15.4458 13.4095 15.4394 13.3966 15.4324 13.384ZM12.8659 15.1767C12.1382 15.1767 11.5465 14.585 11.5465 13.8573C11.5465 13.1297 12.1382 12.5381 12.8659 12.5381C13.5936 12.5381 14.1852 13.1297 14.1852 13.8573C14.1852 14.585 13.5936 15.1767 12.8659 15.1767Z" fill="#484848" stroke="#484848" stroke-width="0.181132"/>
<path d="M4.15897 6.04423H4.21338C4.20764 6.05152 4.20209 6.059 4.19671 6.06667C4.11059 6.18936 4.07606 6.35107 4.07606 6.51766C4.07606 6.68418 4.11059 6.84587 4.19671 6.96854C4.20208 6.9762 4.20764 6.98367 4.21337 6.99096H4.15898L4.18428 7.1017C4.45114 8.26958 5.49344 9.14599 6.74212 9.14599C7.96558 9.14599 8.99093 8.30462 9.28285 7.17209H13.414C13.7759 7.17209 14.0685 6.87948 14.0685 6.51766C14.0685 6.15573 13.7759 5.8631 13.414 5.8631H9.28285C8.99092 4.73069 7.96558 3.88932 6.74212 3.88932C5.49344 3.88932 4.45113 4.76573 4.18428 5.93349L4.15897 6.04423ZM6.74218 7.83688C6.01449 7.83688 5.42283 7.24522 5.42283 6.51766C5.42283 5.78997 6.01449 5.19831 6.74218 5.19831C7.46986 5.19831 8.0614 5.78996 8.0614 6.51766C8.0614 7.24523 7.46986 7.83688 6.74218 7.83688Z" fill="#484848" stroke="#484848" stroke-width="0.181132"/>
</svg>
