<svg width="20" height="20" viewBox="0 0 20 20" fill="none" xmlns="http://www.w3.org/2000/svg">
    <path d="M0 6.39951C0 4.1593 0 3.0392 0.435974 2.18355C0.819467 1.4309 1.43139 0.818979 2.18404 0.435486C3.03969 -0.000488281 4.15979 -0.000488281 6.4 -0.000488281H13.6C15.8402 -0.000488281 16.9603 -0.000488281 17.816 0.435486C18.5686 0.818979 19.1805 1.4309 19.564 2.18355C20 3.0392 20 4.1593 20 6.39951V13.5995C20 15.8397 20 16.9598 19.564 17.8155C19.1805 18.5681 18.5686 19.18 17.816 19.5635C16.9603 19.9995 15.8402 19.9995 13.6 19.9995H6.4C4.15979 19.9995 3.03969 19.9995 2.18404 19.5635C1.43139 19.18 0.819467 18.5681 0.435974 17.8155C0 16.9598 0 15.8397 0 13.5995V6.39951Z" fill="white" />
    <g clip-path="url(#clip0_25_304)">
        <path d="M9.48287 6.02521C9.34405 6.10991 9.33701 6.15699 9.33701 6.93546V7.63638L9.15353 7.71635C8.74423 7.89752 8.20093 8.23379 7.80812 8.54905C7.71165 8.62902 7.49055 8.83373 7.32126 9.00533L7.00842 9.31817H6.89314C6.77082 9.31817 6.79194 9.33225 6.39209 9.01479C6.14041 8.81481 5.62297 8.46908 5.27955 8.2691C5.09838 8.16559 5.0161 8.1327 4.92205 8.12324C4.80677 8.11378 4.79269 8.11851 4.71745 8.19386C4.67279 8.23852 4.62802 8.30441 4.61867 8.33972C4.58567 8.47381 4.78092 9.15119 5.00675 9.68513C5.07264 9.83803 5.12676 9.99324 5.12676 10.0262C5.12676 10.0591 5.07264 10.2073 5.00675 10.3556C4.94086 10.5014 4.85385 10.7085 4.81623 10.8119C4.73626 11.0305 4.60921 11.5057 4.60921 11.5927C4.60921 11.7762 4.80204 11.9314 4.97375 11.8845C5.12192 11.8444 5.90996 11.3576 6.26746 11.0848C6.34512 11.0259 6.49087 10.9107 6.59207 10.8307C6.7497 10.7036 6.78732 10.6825 6.8696 10.6825C6.9213 10.6825 6.98246 10.692 7.006 10.7036C7.02712 10.7154 7.19421 10.873 7.37527 11.0518C7.88336 11.5574 8.53258 12.0114 9.10173 12.2608L9.3369 12.3643V13.0652C9.3369 13.6015 9.34394 13.7826 9.36979 13.8415C9.44745 14.0273 9.62147 14.0696 9.8473 13.9568C10.3672 13.6933 11.1739 13.1358 11.5597 12.7713C11.6702 12.6678 11.6961 12.6584 11.9126 12.609C12.8792 12.402 13.8931 11.8234 14.6881 11.026C15.1067 10.6074 15.389 10.1933 15.389 10.0005C15.389 9.73232 14.8222 9.0314 14.1965 8.53277C13.5003 7.97298 12.6699 7.55894 11.9055 7.38965C11.6891 7.34257 11.6821 7.34026 11.4869 7.16382C11.0964 6.81809 10.4496 6.37347 9.92265 6.08648C9.69693 5.96405 9.60288 5.95228 9.48287 6.02521ZM13.2582 9.4758C13.4087 9.54642 13.5146 9.66632 13.5593 9.82153C13.6039 9.96739 13.6039 10.0333 13.5593 10.179C13.4628 10.5061 13.0935 10.6825 12.7666 10.5578C12.6325 10.5059 12.4538 10.3178 12.4184 10.1932C12.3596 9.97685 12.4044 9.76752 12.5431 9.60989C12.736 9.3911 12.983 9.34413 13.2582 9.4758Z" fill="#E43B50" />
    </g>
    <path d="M19.564 17.8155L20.455 18.2695L19.564 17.8155ZM17.816 19.5635L18.27 20.4545L17.816 19.5635ZM17.816 0.435486L18.27 -0.455521L17.816 0.435486ZM19.564 2.18355L18.673 2.63754L19.564 2.18355ZM2.18404 0.435486L1.73005 -0.455521L2.18404 0.435486ZM0.435974 2.18355L-0.455033 1.72956L0.435974 2.18355ZM6.4 0.999512H13.6V-1.00049H6.4V0.999512ZM19 6.39951V13.5995H21V6.39951H19ZM13.6 18.9995H6.4V20.9995H13.6V18.9995ZM1 13.5995V6.39951H-1V13.5995H1ZM6.4 18.9995C5.26339 18.9995 4.47108 18.9987 3.85424 18.9483C3.24907 18.8989 2.90138 18.8067 2.63803 18.6725L1.73005 20.4545C2.32234 20.7563 2.96253 20.8821 3.69138 20.9417C4.40855 21.0003 5.2964 20.9995 6.4 20.9995V18.9995ZM-1 13.5995C-1 14.7031 -1.00078 15.591 -0.942182 16.3081C-0.882633 17.037 -0.75682 17.6772 -0.455033 18.2695L1.32698 17.3615C1.19279 17.0981 1.10062 16.7504 1.05118 16.1453C1.00078 15.5284 1 14.7361 1 13.5995H-1ZM2.63803 18.6725C2.07354 18.3849 1.6146 17.926 1.32698 17.3615L-0.455033 18.2695C0.0243343 19.2103 0.789237 19.9752 1.73005 20.4545L2.63803 18.6725ZM19 13.5995C19 14.7361 18.9992 15.5284 18.9488 16.1453C18.8994 16.7504 18.8072 17.0981 18.673 17.3615L20.455 18.2695C20.7568 17.6772 20.8826 17.037 20.9422 16.3081C21.0008 15.591 21 14.7031 21 13.5995H19ZM13.6 20.9995C14.7036 20.9995 15.5914 21.0003 16.3086 20.9417C17.0375 20.8821 17.6777 20.7563 18.27 20.4545L17.362 18.6725C17.0986 18.8067 16.7509 18.8989 16.1458 18.9483C15.5289 18.9987 14.7366 18.9995 13.6 18.9995V20.9995ZM18.673 17.3615C18.3854 17.926 17.9265 18.3849 17.362 18.6725L18.27 20.4545C19.2108 19.9752 19.9757 19.2103 20.455 18.2695L18.673 17.3615ZM13.6 0.999512C14.7366 0.999512 15.5289 1.00029 16.1458 1.05069C16.7509 1.10013 17.0986 1.19231 17.362 1.32649L18.27 -0.455521C17.6777 -0.757308 17.0375 -0.883121 16.3086 -0.94267C15.5914 -1.00127 14.7036 -1.00049 13.6 -1.00049V0.999512ZM21 6.39951C21 5.29591 21.0008 4.40806 20.9422 3.69089C20.8826 2.96204 20.7568 2.32185 20.455 1.72956L18.673 2.63754C18.8072 2.9009 18.8994 3.24858 18.9488 3.85375C18.9992 4.47059 19 5.26291 19 6.39951H21ZM17.362 1.32649C17.9265 1.61411 18.3854 2.07305 18.673 2.63754L20.455 1.72956C19.9757 0.788749 19.2108 0.023846 18.27 -0.455521L17.362 1.32649ZM6.4 -1.00049C5.2964 -1.00049 4.40855 -1.00127 3.69138 -0.94267C2.96253 -0.883121 2.32234 -0.757308 1.73005 -0.455521L2.63803 1.32649C2.90138 1.19231 3.24907 1.10013 3.85424 1.05069C4.47108 1.00029 5.26339 0.999512 6.4 0.999512V-1.00049ZM1 6.39951C1 5.26291 1.00078 4.47059 1.05118 3.85375C1.10062 3.24858 1.19279 2.9009 1.32698 2.63754L-0.455033 1.72956C-0.75682 2.32185 -0.882633 2.96204 -0.942182 3.69089C-1.00078 4.40806 -1 5.29591 -1 6.39951H1ZM1.73005 -0.455521C0.789237 0.023846 0.0243343 0.788749 -0.455033 1.72956L1.32698 2.63754C1.6146 2.07305 2.07354 1.61411 2.63803 1.32649L1.73005 -0.455521Z" fill="#E43B50" />
    <defs>
        <clipPath id="clip0_25_304">
            <rect width="11" height="11" fill="white" transform="translate(4.5 4.49951)" />
        </clipPath>
    </defs>
</svg>