<svg width="20" height="20" viewBox="0 0 20 20" fill="none" xmlns="http://www.w3.org/2000/svg">
<path fill-rule="evenodd" clip-rule="evenodd" d="M18.1254 14.1384H1.81183C1.6065 14.1384 1.44092 13.9464 1.44092 13.7114C1.44092 13.4765 1.6065 13.287 1.81183 13.287H3.216C3.1873 13.0343 3.17406 12.7741 3.17406 12.5139C3.17406 9.56281 4.95356 7.04129 7.46826 6.01803C7.5367 4.60567 8.63178 3.47882 9.96751 3.47882C11.3032 3.47882 12.3983 4.60567 12.469 6.02056C14.9837 7.04382 16.7632 9.56787 16.7632 12.5164C16.7632 12.7766 16.7477 13.0343 16.7212 13.2895H18.1254C18.3307 13.2895 18.4963 13.479 18.4963 13.714C18.4963 13.9489 18.3307 14.1384 18.1254 14.1384ZM14.0056 12.7185H15.072C15.072 12.7185 13.9283 7.92812 11.3584 7.15751C11.3584 7.15751 14.0056 9.60071 14.0056 12.7185ZM11.6852 5.75526C11.5064 4.93918 10.8043 4.32775 9.96751 4.32775C9.13075 4.32775 8.42866 4.93918 8.24983 5.75526C8.79737 5.60872 9.37361 5.5304 9.96751 5.5304C10.5614 5.5304 11.1354 5.60872 11.6852 5.75526ZM0.801141 15.4176C0.565655 15.4176 0.374756 15.6085 0.374756 15.8439C0.374756 16.0794 0.565655 16.2703 0.801141 16.2703L19.1357 16.2703C19.3712 16.2703 19.5621 16.0794 19.5621 15.8439C19.5621 15.6085 19.3712 15.4176 19.1357 15.4176L0.801141 15.4176Z" fill="#484848"/>
</svg>
