<svg width="25" height="20" viewBox="0 0 25 20" fill="none" xmlns="http://www.w3.org/2000/svg">
<path d="M8.50381 2.36825C7.65353 3.17601 7.18587 4.11132 7.18587 5.13166C7.18587 6.15199 7.61101 7.0873 8.50381 7.89507C9.35409 7.0873 9.82174 6.15199 9.82174 5.13166C9.77923 4.11132 9.35409 3.21853 8.50381 2.36825V2.36825ZM9.48163 7.55496C8.8014 8.23518 8.50381 9.25552 8.67386 10.5309C9.6942 10.4459 10.587 10.0633 11.2672 9.34055C11.9474 8.66032 12.3726 7.76753 12.4576 6.74719C11.1822 6.57714 10.2044 6.83222 9.48163 7.55496ZM9.48163 11.1261C8.8014 11.8064 8.50381 12.8267 8.67386 14.1021C9.6942 14.0171 10.587 13.6345 11.2672 12.9117C11.9474 12.2315 12.3726 11.3387 12.4576 10.3184C11.1822 10.1483 10.2044 10.4459 9.48163 11.1261ZM9.48163 14.6548C8.8014 15.335 8.50381 16.3554 8.67386 17.6308C9.6942 17.5457 10.587 17.1631 11.2672 16.4404C11.9474 15.7602 12.3726 14.8674 12.4576 13.847C11.1822 13.677 10.2044 13.9746 9.48163 14.6548ZM4.55 6.74719C4.63503 7.76753 5.01766 8.66032 5.7404 9.34055C6.46313 10.0208 7.31341 10.4459 8.33375 10.5309C8.50381 9.25552 8.20621 8.2777 7.52598 7.55496C6.80325 6.83222 5.82542 6.57714 4.55 6.74719V6.74719ZM4.55 10.3184C4.63503 11.3387 5.01766 12.2315 5.7404 12.9117C6.42062 13.5919 7.31341 14.0171 8.33375 14.1021C8.50381 12.8267 8.20621 11.8489 7.52598 11.1261C6.80325 10.4459 5.82542 10.1483 4.55 10.3184V10.3184ZM4.55 13.847C4.63503 14.8674 5.01766 15.7602 5.7404 16.4404C6.46313 17.1206 7.31341 17.5457 8.33375 17.6308C8.50381 16.3554 8.20621 15.3775 7.52598 14.6548C6.80325 13.9746 5.82542 13.677 4.55 13.847V13.847Z" fill="#FFA630"/>
<path d="M17.8227 16.1549V4.63342M17.8227 16.1549L20.4725 13.5051M17.8227 16.1549L15.1729 13.5051" stroke="#FFA630" stroke-width="1.66936" stroke-linecap="round" stroke-linejoin="round"/>
</svg>
