<svg width="20" height="20" viewBox="0 0 20 20" fill="none" xmlns="http://www.w3.org/2000/svg">
    <path d="M0 6.39951C0 4.1593 0 3.0392 0.435974 2.18355C0.819467 1.4309 1.43139 0.818979 2.18404 0.435486C3.03969 -0.000488281 4.15979 -0.000488281 6.4 -0.000488281H13.6C15.8402 -0.000488281 16.9603 -0.000488281 17.816 0.435486C18.5686 0.818979 19.1805 1.4309 19.564 2.18355C20 3.0392 20 4.1593 20 6.39951V13.5995C20 15.8397 20 16.9598 19.564 17.8155C19.1805 18.5681 18.5686 19.18 17.816 19.5635C16.9603 19.9995 15.8402 19.9995 13.6 19.9995H6.4C4.15979 19.9995 3.03969 19.9995 2.18404 19.5635C1.43139 19.18 0.819467 18.5681 0.435974 17.8155C0 16.9598 0 15.8397 0 13.5995V6.39951Z" fill="white" />
    <g clip-path="url(#clip0_25_276)">
        <path d="M14.8803 9.13059C14.8803 8.81559 14.8313 8.50059 14.7323 8.19659C14.2863 6.82659 12.9163 5.90659 11.3243 5.90659C10.9263 5.90659 10.5283 5.96459 10.1413 6.08059L10.1193 6.08659L7.40128 7.37159C6.54028 7.63459 5.77428 8.20359 5.39928 8.95959C5.17628 9.40859 5.09828 9.91859 5.10628 10.6066V11.9806C5.09628 12.0276 5.09628 12.0766 5.11028 12.1256C5.11628 12.1606 5.12728 12.1936 5.14428 12.2236C5.57228 13.4026 6.71928 14.0866 8.04328 14.0866C8.37528 14.0866 8.80628 14.0636 9.14228 14.0006L12.1873 13.5726L12.2093 13.5666C13.0273 13.3226 13.7483 12.8316 14.2383 12.1856C14.5583 11.7626 14.7723 11.2846 14.8693 10.7906C14.9053 10.7406 14.9093 9.17759 14.8803 9.13059ZM11.0113 8.15559C11.1553 7.88159 11.4163 7.67159 11.7293 7.57759C11.8473 7.54259 11.9693 7.52459 12.0923 7.52459C12.5923 7.52459 13.0233 7.81959 13.1663 8.25759C13.2503 8.51559 13.2253 8.79259 13.0953 9.03959C12.9513 9.31359 12.6903 9.52359 12.3773 9.61759C12.2593 9.65259 12.1373 9.67059 12.0143 9.67059C11.5143 9.67059 11.0833 9.37559 10.9403 8.93759C10.8573 8.67959 10.8823 8.40259 11.0113 8.15559ZM13.7583 11.8226C13.3493 12.3626 12.7453 12.7746 12.0573 12.9846L8.99128 13.4186C7.30928 13.5816 6.14828 13.1756 5.53528 12.0996L5.53228 11.6876C6.19428 12.5566 7.10928 13.0616 8.18228 13.0256C8.51828 13.0256 12.1993 12.4546 12.1993 12.4546C12.9703 12.2246 13.6433 11.7766 14.1233 11.1886C14.0323 11.4106 13.9093 11.6236 13.7583 11.8226ZM12.0143 9.07059C12.0783 9.07059 12.1423 9.06159 12.2053 9.04259C12.3643 8.99559 12.4943 8.89259 12.5633 8.76159C12.6013 8.68959 12.6373 8.57559 12.5943 8.44459C12.5323 8.25359 12.3303 8.12559 12.0913 8.12559C12.0273 8.12559 11.9633 8.13459 11.9003 8.15359C11.7413 8.20059 11.6113 8.30359 11.5423 8.43459C11.5043 8.50659 11.4683 8.62059 11.5103 8.75159C11.5733 8.94259 11.7753 9.07059 12.0143 9.07059Z" fill="#E43B50" stroke="white" stroke-width="0.1" />
    </g>
    <path d="M19.564 17.8155L20.455 18.2695L19.564 17.8155ZM17.816 19.5635L18.27 20.4545L17.816 19.5635ZM17.816 0.435486L18.27 -0.455521L17.816 0.435486ZM19.564 2.18355L18.673 2.63754L19.564 2.18355ZM2.18404 0.435486L1.73005 -0.455521L2.18404 0.435486ZM0.435974 2.18355L-0.455033 1.72956L0.435974 2.18355ZM6.4 0.999512H13.6V-1.00049H6.4V0.999512ZM19 6.39951V13.5995H21V6.39951H19ZM13.6 18.9995H6.4V20.9995H13.6V18.9995ZM1 13.5995V6.39951H-1V13.5995H1ZM6.4 18.9995C5.26339 18.9995 4.47108 18.9987 3.85424 18.9483C3.24907 18.8989 2.90138 18.8067 2.63803 18.6725L1.73005 20.4545C2.32234 20.7563 2.96253 20.8821 3.69138 20.9417C4.40855 21.0003 5.2964 20.9995 6.4 20.9995V18.9995ZM-1 13.5995C-1 14.7031 -1.00078 15.591 -0.942182 16.3081C-0.882633 17.037 -0.75682 17.6772 -0.455033 18.2695L1.32698 17.3615C1.19279 17.0981 1.10062 16.7504 1.05118 16.1453C1.00078 15.5284 1 14.7361 1 13.5995H-1ZM2.63803 18.6725C2.07354 18.3849 1.6146 17.926 1.32698 17.3615L-0.455033 18.2695C0.0243343 19.2103 0.789237 19.9752 1.73005 20.4545L2.63803 18.6725ZM19 13.5995C19 14.7361 18.9992 15.5284 18.9488 16.1453C18.8994 16.7504 18.8072 17.0981 18.673 17.3615L20.455 18.2695C20.7568 17.6772 20.8826 17.037 20.9422 16.3081C21.0008 15.591 21 14.7031 21 13.5995H19ZM13.6 20.9995C14.7036 20.9995 15.5914 21.0003 16.3086 20.9417C17.0375 20.8821 17.6777 20.7563 18.27 20.4545L17.362 18.6725C17.0986 18.8067 16.7509 18.8989 16.1458 18.9483C15.5289 18.9987 14.7366 18.9995 13.6 18.9995V20.9995ZM18.673 17.3615C18.3854 17.926 17.9265 18.3849 17.362 18.6725L18.27 20.4545C19.2108 19.9752 19.9757 19.2103 20.455 18.2695L18.673 17.3615ZM13.6 0.999512C14.7366 0.999512 15.5289 1.00029 16.1458 1.05069C16.7509 1.10013 17.0986 1.19231 17.362 1.32649L18.27 -0.455521C17.6777 -0.757308 17.0375 -0.883121 16.3086 -0.94267C15.5914 -1.00127 14.7036 -1.00049 13.6 -1.00049V0.999512ZM21 6.39951C21 5.29591 21.0008 4.40806 20.9422 3.69089C20.8826 2.96204 20.7568 2.32185 20.455 1.72956L18.673 2.63754C18.8072 2.9009 18.8994 3.24858 18.9488 3.85375C18.9992 4.47059 19 5.26291 19 6.39951H21ZM17.362 1.32649C17.9265 1.61411 18.3854 2.07305 18.673 2.63754L20.455 1.72956C19.9757 0.788749 19.2108 0.023846 18.27 -0.455521L17.362 1.32649ZM6.4 -1.00049C5.2964 -1.00049 4.40855 -1.00127 3.69138 -0.94267C2.96253 -0.883121 2.32234 -0.757308 1.73005 -0.455521L2.63803 1.32649C2.90138 1.19231 3.24907 1.10013 3.85424 1.05069C4.47108 1.00029 5.26339 0.999512 6.4 0.999512V-1.00049ZM1 6.39951C1 5.26291 1.00078 4.47059 1.05118 3.85375C1.10062 3.24858 1.19279 2.9009 1.32698 2.63754L-0.455033 1.72956C-0.75682 2.32185 -0.882633 2.96204 -0.942182 3.69089C-1.00078 4.40806 -1 5.29591 -1 6.39951H1ZM1.73005 -0.455521C0.789237 0.023846 0.0243343 0.788749 -0.455033 1.72956L1.32698 2.63754C1.6146 2.07305 2.07354 1.61411 2.63803 1.32649L1.73005 -0.455521Z" fill="#E43B50" />
    <defs>
        <clipPath id="clip0_25_276">
            <rect width="10" height="10" fill="white" transform="translate(5 4.99951)" />
        </clipPath>
    </defs>
</svg>