<svg width="20" height="20" viewBox="0 0 20 20" fill="none" xmlns="http://www.w3.org/2000/svg">
<g clip-path="url(#clip0_25_3126)">
<path d="M12.7273 2.72778C14.6561 2.72778 16.506 3.49401 17.8699 4.85792C19.2338 6.22182 20 8.07166 20 10.0005C20 11.9294 19.2338 13.7792 17.8699 15.1431C16.506 16.507 14.6561 17.2732 12.7273 17.2732C10.7984 17.2732 8.94858 16.507 7.58468 15.1431C6.22078 13.7792 5.45455 11.9294 5.45455 10.0005C5.45455 8.07166 6.22078 6.22182 7.58468 4.85792C8.94858 3.49401 10.7984 2.72778 12.7273 2.72778ZM12.7273 4.54596C11.2806 4.54596 9.89325 5.12064 8.87033 6.14356C7.8474 7.16649 7.27273 8.55387 7.27273 10.0005C7.27273 11.4471 7.8474 12.8345 8.87033 13.8575C9.89325 14.8804 11.2806 15.4551 12.7273 15.4551C14.1739 15.4551 15.5613 14.8804 16.5842 13.8575C17.6071 12.8345 18.1818 11.4471 18.1818 10.0005C18.1818 8.55387 17.6071 7.16649 16.5842 6.14356C15.5613 5.12064 14.1739 4.54596 12.7273 4.54596ZM11.8182 6.36415H13.1818V9.80051L15.3 11.9187L14.3364 12.8823L11.8182 10.3641V6.36415ZM0.909091 15.4551C0.667985 15.4551 0.436754 15.3593 0.266267 15.1888C0.0957789 15.0183 0 14.7871 0 14.546C0 14.3049 0.0957789 14.0736 0.266267 13.9031C0.436754 13.7327 0.667985 13.6369 0.909091 13.6369H4.39091C4.67273 14.2823 5.03636 14.8914 5.45455 15.4551H0.909091ZM1.81818 10.9096C1.57708 10.9096 1.34585 10.8138 1.17536 10.6433C1.00487 10.4728 0.909091 10.2416 0.909091 10.0005C0.909091 9.7594 1.00487 9.52817 1.17536 9.35769C1.34585 9.1872 1.57708 9.09142 1.81818 9.09142H3.68182L3.63636 10.0005L3.68182 10.9096H1.81818ZM2.72727 6.36415C2.48617 6.36415 2.25494 6.26837 2.08445 6.09788C1.91396 5.92739 1.81818 5.69616 1.81818 5.45506C1.81818 5.21395 1.91396 4.98272 2.08445 4.81223C2.25494 4.64174 2.48617 4.54596 2.72727 4.54596H5.45455C5.03636 5.1096 4.67273 5.71869 4.39091 6.36415H2.72727Z" fill="#E77952"/>
</g>
<defs>
<clipPath id="clip0_25_3126">
<rect width="20" height="20" fill="white" transform="translate(0 -0.000488281)"/>
</clipPath>
</defs>
</svg>
