<svg width="16" height="16" viewBox="0 0 16 16" fill="none" xmlns="http://www.w3.org/2000/svg">
<path d="M0 6.4C0 4.15979 0 3.03969 0.435974 2.18404C0.819467 1.43139 1.43139 0.819467 2.18404 0.435974C3.03969 0 4.15979 0 6.4 0H9.6C11.8402 0 12.9603 0 13.816 0.435974C14.5686 0.819467 15.1805 1.43139 15.564 2.18404C16 3.03969 16 4.15979 16 6.4V9.6C16 11.8402 16 12.9603 15.564 13.816C15.1805 14.5686 14.5686 15.1805 13.816 15.564C12.9603 16 11.8402 16 9.6 16H6.4C4.15979 16 3.03969 16 2.18404 15.564C1.43139 15.1805 0.819467 14.5686 0.435974 13.816C0 12.9603 0 11.8402 0 9.6V6.4Z" fill="white"/>
<circle cx="8" cy="8" r="4" fill="#0C8A64"/>
<path d="M2.18404 15.564L2.63803 14.673L2.18404 15.564ZM15.564 13.816L16.455 14.27L15.564 13.816ZM13.816 15.564L14.27 16.455L13.816 15.564ZM13.816 0.435974L13.362 1.32698L13.816 0.435974ZM15.564 2.18404L14.673 2.63803L15.564 2.18404ZM2.18404 0.435974L1.73005 -0.455033L2.18404 0.435974ZM0.435974 2.18404L-0.455033 1.73005L0.435974 2.18404ZM6.4 1H9.6V-1H6.4V1ZM15 6.4V9.6H17V6.4H15ZM9.6 15H6.4V17H9.6V15ZM1 9.6V6.4H-1V9.6H1ZM6.4 15C5.26339 15 4.47108 14.9992 3.85424 14.9488C3.24907 14.8994 2.90138 14.8072 2.63803 14.673L1.73005 16.455C2.32234 16.7568 2.96253 16.8826 3.69138 16.9422C4.40855 17.0008 5.2964 17 6.4 17V15ZM-1 9.6C-1 10.7036 -1.00078 11.5914 -0.942182 12.3086C-0.882633 13.0375 -0.75682 13.6777 -0.455033 14.27L1.32698 13.362C1.19279 13.0986 1.10062 12.7509 1.05118 12.1458C1.00078 11.5289 1 10.7366 1 9.6H-1ZM2.63803 14.673C2.07354 14.3854 1.6146 13.9265 1.32698 13.362L-0.455033 14.27C0.0243343 15.2108 0.789237 15.9757 1.73005 16.455L2.63803 14.673ZM15 9.6C15 10.7366 14.9992 11.5289 14.9488 12.1458C14.8994 12.7509 14.8072 13.0986 14.673 13.362L16.455 14.27C16.7568 13.6777 16.8826 13.0375 16.9422 12.3086C17.0008 11.5914 17 10.7036 17 9.6H15ZM9.6 17C10.7036 17 11.5914 17.0008 12.3086 16.9422C13.0375 16.8826 13.6777 16.7568 14.27 16.455L13.362 14.673C13.0986 14.8072 12.7509 14.8994 12.1458 14.9488C11.5289 14.9992 10.7366 15 9.6 15V17ZM14.673 13.362C14.3854 13.9265 13.9265 14.3854 13.362 14.673L14.27 16.455C15.2108 15.9757 15.9757 15.2108 16.455 14.27L14.673 13.362ZM9.6 1C10.7366 1 11.5289 1.00078 12.1458 1.05118C12.7509 1.10062 13.0986 1.19279 13.362 1.32698L14.27 -0.455033C13.6777 -0.75682 13.0375 -0.882633 12.3086 -0.942182C11.5914 -1.00078 10.7036 -1 9.6 -1V1ZM17 6.4C17 5.2964 17.0008 4.40855 16.9422 3.69138C16.8826 2.96253 16.7568 2.32234 16.455 1.73005L14.673 2.63803C14.8072 2.90138 14.8994 3.24907 14.9488 3.85424C14.9992 4.47108 15 5.26339 15 6.4H17ZM13.362 1.32698C13.9265 1.6146 14.3854 2.07354 14.673 2.63803L16.455 1.73005C15.9757 0.789237 15.2108 0.0243343 14.27 -0.455033L13.362 1.32698ZM6.4 -1C5.2964 -1 4.40855 -1.00078 3.69138 -0.942182C2.96253 -0.882633 2.32234 -0.75682 1.73005 -0.455033L2.63803 1.32698C2.90138 1.19279 3.24907 1.10062 3.85424 1.05118C4.47108 1.00078 5.26339 1 6.4 1V-1ZM1 6.4C1 5.26339 1.00078 4.47108 1.05118 3.85424C1.10062 3.24907 1.19279 2.90138 1.32698 2.63803L-0.455033 1.73005C-0.75682 2.32234 -0.882633 2.96253 -0.942182 3.69138C-1.00078 4.40855 -1 5.2964 -1 6.4H1ZM1.73005 -0.455033C0.789237 0.0243343 0.0243343 0.789237 -0.455033 1.73005L1.32698 2.63803C1.6146 2.07354 2.07354 1.6146 2.63803 1.32698L1.73005 -0.455033Z" fill="#0C8A64"/>
</svg>
