<svg width="20" height="20" viewBox="0 0 20 20" fill="none" xmlns="http://www.w3.org/2000/svg">
<path d="M3.7793 15.6489C3.7793 16.3849 4.37637 16.9819 5.1123 16.9819H14.8877C15.6236 16.9819 16.2207 16.3849 16.2207 15.6489V8.09521H3.7793V15.6489ZM5.55664 10.3169C5.55664 10.0725 5.75659 9.87256 6.00098 9.87256H13.999C14.2434 9.87256 14.4434 10.0725 14.4434 10.3169V12.0942C14.4434 12.3386 14.2434 12.5386 13.999 12.5386H6.00098C5.75659 12.5386 5.55664 12.3386 5.55664 12.0942V10.3169ZM14.8877 4.54053H13.5547V3.20752C13.5547 2.96313 13.3547 2.76318 13.1104 2.76318H12.2217C11.9773 2.76318 11.7773 2.96313 11.7773 3.20752V4.54053H8.22266V3.20752C8.22266 2.96313 8.02271 2.76318 7.77832 2.76318H6.88965C6.64526 2.76318 6.44531 2.96313 6.44531 3.20752V4.54053H5.1123C4.37637 4.54053 3.7793 5.1376 3.7793 5.87354V7.20654H16.2207V5.87354C16.2207 5.1376 15.6236 4.54053 14.8877 4.54053Z" fill="#647AD0"/>
</svg>
